<?xml version="1.0" encoding="UTF-8" standalone="no"?>
<svg width="55px" height="55px" viewBox="0 0 55 55" version="1.1" xmlns="http://www.w3.org/2000/svg" xmlns:xlink="http://www.w3.org/1999/xlink" xmlns:sketch="http://www.bohemiancoding.com/sketch/ns">
    <!-- Generator: Sketch 3.5.2 (25235) - http://www.bohemiancoding.com/sketch -->
    <title>Rectangle 1</title>
    <desc>Created with Sketch.</desc>
    <defs></defs>
    <g id="Page-1" stroke="none" stroke-width="1" fill="none" fill-rule="evenodd" sketch:type="MSPage">
        <rect id="Rectangle-1" fill="#5F9E86" sketch:type="MSShapeGroup" x="0" y="0" width="55" height="55" rx="13"></rect>
        <path d="M27.0499836,18.07491 C27.3602244,16.1414924 28.2437269,14.446411 29.7005046,12.9896333 C30.0811167,12.6132502 30.4767765,12.2751352 30.8874845,11.975288 C32.2933987,11.0203688 33.8927064,10.5429145 35.6854335,10.5429145 L37.6923161,10.5429145 C38.1454854,10.5429145 38.5339104,10.3810708 38.8576028,10.0573784 C39.0775677,9.83741354 39.2227929,9.58755599 39.2932802,9.30780208 C39.3454984,9.18189627 39.3818925,9.04694784 39.4024627,8.90295641 L39.4024627,8.71578037 C39.4024627,8.29983153 39.2672814,7.94628032 38.9969146,7.65511614 C38.7265479,7.34315451 38.3937938,7.16637891 37.9986424,7.12478403 C37.4371115,7.04159426 36.9067847,7 36.4076461,7 C35.0725412,7 33.7919178,7.19669974 32.5657651,7.5901024 C30.5491634,8.1091179 28.7513726,9.15812319 27.1723668,10.737129 C26.1686278,11.740868 25.3790548,12.833015 24.8036449,14.0135768 C23.8250528,12.4439577 22.556122,11.1459775 20.9968188,10.1196007 C19.312226,9.03813369 17.47168,8.40382124 15.4751256,8.21664426 C15.1007716,8.17504938 14.7680176,8.26863646 14.4768534,8.49740832 C14.2064866,8.72618018 14.0505082,9.02773856 14.0089133,9.40209251 C13.9673184,9.77644646 14.071304,10.098802 14.3208733,10.3691687 C14.5496452,10.6603329 14.840805,10.8267099 15.1943615,10.8683048 C17.336498,11.0762792 19.1874426,11.8873673 20.7472507,13.3015933 C22.2316894,14.6297754 23.2116625,16.2514338 23.6871949,18.1666121 C23.6584901,18.5218808 23.6441377,18.8830753 23.6441377,19.2501956 L23.6441377,46.9581236 C23.6441377,47.4328724 23.8059814,47.832087 24.1296738,48.1557794 C24.4533662,48.4794718 24.8525808,48.6413155 25.3273296,48.6413155 C25.7804989,48.6413155 26.1689239,48.4794718 26.4926163,48.1557794 C26.8163086,47.832087 26.9781524,47.4328724 26.9781524,46.9581236 L26.9781524,36.0173764 L33.7109199,36.0173764 C34.1856687,36.0173764 34.5848833,35.8555326 34.9085757,35.5318402 C35.2322681,35.2081479 35.3941118,34.8197229 35.3941118,34.3665535 C35.3941118,33.8918047 35.2322681,33.4925901 34.9085757,33.1688978 C34.5848833,32.8452054 34.1856687,32.6833617 33.7109199,32.6833617 L26.9781524,32.6833617 L26.9781524,19.2501956 C26.9781524,18.8487341 27.0020961,18.4569723 27.0499836,18.07491 Z" id="k" fill="#FFFFFF" sketch:type="MSShapeGroup"></path>
    </g>
</svg>